<svg version="1.1" xmlns="http://www.w3.org/2000/svg" xmlns:xlink="http://www.w3.org/1999/xlink" style="display:none">
<symbol viewBox="0 0 448 512" id="chevron-down"><path d="M207.029 381.476 12.686 187.132c-9.373-9.373-9.373-24.569 0-33.941l22.667-22.667c9.357-9.357 24.522-9.375 33.901-.04L224 284.505l154.745-154.021c9.379-9.335 24.544-9.317 33.901.04l22.667 22.667c9.373 9.373 9.373 24.569 0 33.941L240.971 381.476c-9.373 9.372-24.569 9.372-33.942 0z"/></symbol>
<symbol viewBox="0 0 448 512" id="chevron-up"><path d="m240.971 130.524 194.343 194.343c9.373 9.373 9.373 24.569 0 33.941l-22.667 22.667c-9.357 9.357-24.522 9.375-33.901.04L224 227.495 69.255 381.516c-9.379 9.335-24.544 9.317-33.901-.04l-22.667-22.667c-9.373-9.373-9.373-24.569 0-33.941L207.03 130.525c9.372-9.373 24.568-9.373 33.941-.001z"/></symbol>
<symbol viewBox="0 0 448 512" id="font"><path d="M432 416h-23.41L277.88 53.69A32 32 0 0 0 247.58 32h-47.16a32 32 0 0 0-30.3 21.69L39.41 416H16a16 16 0 0 0-16 16v32a16 16 0 0 0 16 16h128a16 16 0 0 0 16-16v-32a16 16 0 0 0-16-16h-19.58l23.3-64h152.56l23.3 64H304a16 16 0 0 0-16 16v32a16 16 0 0 0 16 16h128a16 16 0 0 0 16-16v-32a16 16 0 0 0-16-16zM176.85 272 224 142.51 271.15 272z"/></symbol>
<symbol viewBox="0 0 256 512" id="level_1_off"><rect width="236.641" height="86.641" x="6.68" y="959.038" fill="none" rx="15.946" ry="15.667" style="opacity:.87999998;fill:#46b8da;fill-opacity:0;stroke:#000;stroke-width:13.35916042;stroke-linecap:round;stroke-linejoin:round;stroke-miterlimit:35.90000153;stroke-opacity:1;stroke-dasharray:none" transform="translate(0 -552.362)"/></symbol>
<symbol viewBox="0 0 256 512" id="level_1_on"><rect width="236.641" height="86.641" x="6.68" y="959.038" rx="15.946" ry="15.667" style="opacity:.87999998;fill:#46b8da;fill-opacity:1;stroke:#000;stroke-width:13.35916042;stroke-linecap:round;stroke-linejoin:round;stroke-miterlimit:35.90000153;stroke-opacity:1;stroke-dasharray:none" transform="translate(0 -552.362)"/></symbol>
<symbol viewBox="0 0 256 512" id="level_2_off"><rect width="230.929" height="180.929" x="9.535" y="861.898" fill="none" rx="22.392" ry="22.275" style="opacity:.87999998;fill:#46b8da;fill-opacity:0;stroke:#000;stroke-width:19.07071304;stroke-linecap:round;stroke-linejoin:round;stroke-miterlimit:35.90000153;stroke-opacity:1;stroke-dasharray:none" transform="translate(0 -552.362)"/></symbol>
<symbol viewBox="0 0 256 512" id="level_2_on"><rect width="230.929" height="180.929" x="9.535" y="861.898" rx="22.392" ry="22.275" style="opacity:.87999998;fill:#46b8da;fill-opacity:1;stroke:#000;stroke-width:19.07071304;stroke-linecap:round;stroke-linejoin:round;stroke-miterlimit:35.90000153;stroke-opacity:1;stroke-dasharray:none" transform="translate(0 -552.362)"/></symbol>
<symbol viewBox="0 0 256 512" id="level_3_off"><rect width="226.639" height="276.639" x="11.681" y="764.043" fill="none" rx="36.698" ry="40.173" style="opacity:.87999998;fill:#46b8da;fill-opacity:0;stroke:#000;stroke-width:23.36127472;stroke-linecap:round;stroke-linejoin:round;stroke-miterlimit:35.90000153;stroke-opacity:1;stroke-dasharray:none" transform="translate(0 -552.362)"/></symbol>
<symbol viewBox="0 0 256 512" id="level_3_on"><rect width="226.639" height="276.639" x="11.681" y="764.043" rx="36.698" ry="40.173" style="opacity:.87999998;fill:#46b8da;fill-opacity:1;stroke:#000;stroke-width:23.36127472;stroke-linecap:round;stroke-linejoin:round;stroke-miterlimit:35.90000153;stroke-opacity:1;stroke-dasharray:none" transform="translate(0 -552.362)"/></symbol>
<symbol viewBox="0 0 256 512" id="level_4_off"><rect width="223.084" height="373.084" x="13.458" y="665.82" fill="none" rx="40.059" ry="46.087" style="opacity:.87999998;fill:#46b8da;fill-opacity:0;stroke:#000;stroke-width:26.91600037;stroke-linecap:round;stroke-linejoin:round;stroke-miterlimit:35.90000153;stroke-opacity:1;stroke-dasharray:none" transform="translate(0 -552.362)"/></symbol>
<symbol viewBox="0 0 256 512" id="level_4_on"><rect width="223.084" height="373.084" x="13.458" y="665.82" rx="40.059" ry="46.087" style="opacity:.87999998;fill:#46b8da;fill-opacity:1;stroke:#000;stroke-width:26.91600037;stroke-linecap:round;stroke-linejoin:round;stroke-miterlimit:35.90000153;stroke-opacity:1;stroke-dasharray:none" transform="translate(0 -552.362)"/></symbol>
<symbol viewBox="0 0 512 512" id="power-off"><path d="M400 54.1c63 45 104 118.6 104 201.9 0 136.8-110.8 247.7-247.5 248C120 504.3 8.2 393 8 256.4 7.9 173.1 48.9 99.3 111.8 54.2c11.7-8.3 28-4.8 35 7.7L162.6 90c5.9 10.5 3.1 23.8-6.6 31-41.5 30.8-68 79.6-68 134.9-.1 92.3 74.5 168.1 168 168.1 91.6 0 168.6-74.2 168-169.1-.3-51.8-24.7-101.8-68.1-134-9.7-7.2-12.4-20.5-6.5-30.9l15.8-28.1c7-12.4 23.2-16.1 34.8-7.8zM296 264V24c0-13.3-10.7-24-24-24h-32c-13.3 0-24 10.7-24 24v240c0 13.3 10.7 24 24 24h32c13.3 0 24-10.7 24-24z"/></symbol>
<symbol viewBox="0 0 640 512" id="retweet"><path d="M629.657 343.598 528.971 444.284c-9.373 9.372-24.568 9.372-33.941 0L394.343 343.598c-9.373-9.373-9.373-24.569 0-33.941l10.823-10.823c9.562-9.562 25.133-9.34 34.419.492L480 342.118V160H292.451a24.005 24.005 0 0 1-16.971-7.029l-16-16C244.361 121.851 255.069 96 276.451 96H520c13.255 0 24 10.745 24 24v222.118l40.416-42.792c9.285-9.831 24.856-10.054 34.419-.492l10.823 10.823c9.372 9.372 9.372 24.569-.001 33.941zm-265.138 15.431A23.999 23.999 0 0 0 347.548 352H160V169.881l40.416 42.792c9.286 9.831 24.856 10.054 34.419.491l10.822-10.822c9.373-9.373 9.373-24.569 0-33.941L144.971 67.716c-9.373-9.373-24.569-9.373-33.941 0L10.343 168.402c-9.373 9.373-9.373 24.569 0 33.941l10.822 10.822c9.562 9.562 25.133 9.34 34.419-.491L96 169.881V392c0 13.255 10.745 24 24 24h243.549c21.382 0 32.09-25.851 16.971-40.971l-16.001-16z"/></symbol>
<symbol viewBox="0 0 448 512" id="snowflake"><path d="m440.3 345.2-33.8-19.5 26-7c8.2-2.2 13.1-10.7 10.9-18.9l-4-14.9c-2.2-8.2-10.7-13.1-18.9-10.9l-70.8 19-63.9-37 63.8-36.9 70.8 19c8.2 2.2 16.7-2.7 18.9-10.9l4-14.9c2.2-8.2-2.7-16.7-10.9-18.9l-26-7 33.8-19.5c7.4-4.3 9.9-13.7 5.7-21.1L430.4 119c-4.3-7.4-13.7-9.9-21.1-5.7l-33.8 19.5 7-26c2.2-8.2-2.7-16.7-10.9-18.9l-14.9-4c-8.2-2.2-16.7 2.7-18.9 10.9l-19 70.8-62.8 36.2v-77.5l53.7-53.7c6.2-6.2 6.2-16.4 0-22.6l-11.3-11.3c-6.2-6.2-16.4-6.2-22.6 0L256 56.4V16c0-8.8-7.2-16-16-16h-32c-8.8 0-16 7.2-16 16v40.4l-19.7-19.7c-6.2-6.2-16.4-6.2-22.6 0L138.3 48c-6.3 6.2-6.3 16.4 0 22.6l53.7 53.7v77.5l-62.8-36.2-19-70.8c-2.2-8.2-10.7-13.1-18.9-10.9l-14.9 4c-8.2 2.2-13.1 10.7-10.9 18.9l7 26-33.8-19.5c-7.4-4.3-16.8-1.7-21.1 5.7L2.1 145.7c-4.3 7.4-1.7 16.8 5.7 21.1l33.8 19.5-26 7c-8.3 2.2-13.2 10.7-11 19l4 14.9c2.2 8.2 10.7 13.1 18.9 10.9l70.8-19 63.8 36.9-63.8 36.9-70.8-19c-8.2-2.2-16.7 2.7-18.9 10.9l-4 14.9c-2.2 8.2 2.7 16.7 10.9 18.9l26 7-33.8 19.6c-7.4 4.3-9.9 13.7-5.7 21.1l15.5 26.8c4.3 7.4 13.7 9.9 21.1 5.7l33.8-19.5-7 26c-2.2 8.2 2.7 16.7 10.9 18.9l14.9 4c8.2 2.2 16.7-2.7 18.9-10.9l19-70.8 62.8-36.2v77.5l-53.7 53.7c-6.3 6.2-6.3 16.4 0 22.6l11.3 11.3c6.2 6.2 16.4 6.2 22.6 0l19.7-19.7V496c0 8.8 7.2 16 16 16h32c8.8 0 16-7.2 16-16v-40.4l19.7 19.7c6.2 6.2 16.4 6.2 22.6 0l11.3-11.3c6.2-6.2 6.2-16.4 0-22.6L256 387.7v-77.5l62.8 36.2 19 70.8c2.2 8.2 10.7 13.1 18.9 10.9l14.9-4c8.2-2.2 13.1-10.7 10.9-18.9l-7-26 33.8 19.5c7.4 4.3 16.8 1.7 21.1-5.7l15.5-26.8c4.3-7.3 1.8-16.8-5.6-21z"/></symbol>
<symbol viewBox="0 0 512 512" id="sun"><path d="M256 160c-52.9 0-96 43.1-96 96s43.1 96 96 96 96-43.1 96-96-43.1-96-96-96zm246.4 80.5-94.7-47.3 33.5-100.4c4.5-13.6-8.4-26.5-21.9-21.9l-100.4 33.5-47.4-94.8c-6.4-12.8-24.6-12.8-31 0l-47.3 94.7L92.7 70.8c-13.6-4.5-26.5 8.4-21.9 21.9l33.5 100.4-94.7 47.4c-12.8 6.4-12.8 24.6 0 31l94.7 47.3-33.5 100.5c-4.5 13.6 8.4 26.5 21.9 21.9l100.4-33.5 47.3 94.7c6.4 12.8 24.6 12.8 31 0l47.3-94.7 100.4 33.5c13.6 4.5 26.5-8.4 21.9-21.9l-33.5-100.4 94.7-47.3c13-6.5 13-24.7.2-31.1zm-155.9 106c-49.9 49.9-131.1 49.9-181 0-49.9-49.9-49.9-131.1 0-181 49.9-49.9 131.1-49.9 181 0 49.9 49.9 49.9 131.1 0 181z"/></symbol>
<symbol viewBox="0 0 352 512" id="tint"><path d="M205.22 22.09c-7.94-28.78-49.44-30.12-58.44 0C100.01 179.85 0 222.72 0 333.91 0 432.35 78.72 512 176 512s176-79.65 176-178.09c0-111.75-99.79-153.34-146.78-311.82zM176 448c-61.75 0-112-50.25-112-112 0-8.84 7.16-16 16-16s16 7.16 16 16c0 44.11 35.89 80 80 80 8.84 0 16 7.16 16 16s-7.16 16-16 16z"/></symbol>
</svg>